<svg width="184" height="184" viewBox="0 0 184 184" fill="none" xmlns="http://www.w3.org/2000/svg">
<path d="M131.531 18.147L125.062 27.669C125.062 27.669 128.587 30.4117 130.272 34.3217C131.732 37.7545 132.79 41.7795 127.219 48.5127L122.187 53.5497C105.254 39.1287 88.0439 38.4502 88.0439 38.4502H84.8124L83.0126 41.3252C83.0126 41.3252 68.3501 66.2572 54.2626 92C47.2189 104.868 40.2499 117.967 35.4084 128.3C32.9761 133.463 31.0671 137.96 29.8309 141.594C29.2271 143.411 28.7959 144.94 28.5774 146.625C28.3474 148.31 27.7206 150.621 30.5496 153.456C33.3844 156.285 35.6959 155.652 37.3806 155.428C39.0654 155.204 40.5949 154.778 42.4119 154.175C46.0516 152.938 50.5424 151.029 55.7116 148.597C66.0271 143.75 79.1256 136.792 91.9999 129.743C117.72 115.632 142.675 100.993 142.675 100.993L145.55 99.1932V95.7777C145.55 95.7777 144.785 78.775 130.456 61.8182L132.428 59.662C132.923 59.1675 133.371 58.8282 133.866 58.4027L135.303 57.1435C142.088 51.934 148.511 52.141 154.175 53.5555C158.104 54.5482 161.818 56.2514 165.134 58.581L172.322 49.5995C172.322 49.5995 165.939 44.6832 156.866 42.412C154.859 41.9403 152.816 41.6402 150.759 41.515L162.437 29.831L154.169 21.5682L142.134 33.6087C141.844 32.2524 141.422 30.9275 140.875 29.6527C137.638 22.1087 131.531 18.1527 131.531 18.1527V18.147ZM90.9189 50.669C94.6966 51.0312 105.501 52.601 118.415 65.5845C131.353 78.614 132.946 89.332 133.325 93.0752C132.382 93.6387 127.466 96.6057 123.625 98.8252C121.588 94.3077 119.056 90.0304 116.075 86.0717L106.915 93.081C110.958 98.4687 112.619 102.177 113.562 104.581C104.557 109.683 95.512 114.714 86.4281 119.675C85.8704 119.962 85.3759 120.278 84.8124 120.572C83.7544 117.426 82.0294 113.631 78.8841 109.25L69.5404 115.897C72.3694 119.853 73.7609 123.107 74.3934 125.241C74.5026 125.603 74.5026 125.689 74.5659 125.959C65.9696 130.565 57.6609 134.987 50.8529 138.178C47.3051 139.846 44.7866 140.766 42.2279 141.772C43.2399 139.213 44.1599 136.695 45.8216 133.147C50.4676 123.245 57.3446 110.331 64.3251 97.5717C67.6946 91.4192 70.2591 86.8135 73.3124 81.397C75.1524 83.0127 77.5329 85.192 80.1434 88.5845L89.1249 81.5752C86.2086 77.7045 82.8293 74.2055 79.0624 71.1562C85.0826 60.5992 89.8896 52.4457 90.9246 50.669H90.9189Z" fill="black"/>
</svg>
